<svg width="1935" height="1485" viewBox="0 0 1935 1485" fill="none" xmlns="http://www.w3.org/2000/svg">
<path d="M139 716V716.5H139.5V716H139ZM1 716H0.5V716.5H1V716ZM139 577H138.5V716H139H139.5V577H139ZM139 716V715.5H1V716V716.5H139V716ZM1 716H1.5V577H1H0.5V716H1Z" fill="#F8F8F8" fill-opacity="0.09"/>
<path d="M277 716V716.5H277.5V716H277ZM139 716H138.5V716.5H139V716ZM277 577H276.5V716H277H277.5V577H277ZM277 716V715.5H139V716V716.5H277V716ZM139 716H139.5V577H139H138.5V716H139Z" fill="#F8F8F8" fill-opacity="0.09"/>
<path d="M415 716V716.5H415.5V716H415ZM277 716H276.5V716.5H277V716ZM415 577H414.5V716H415H415.5V577H415ZM415 716V715.5H277V716V716.5H415V716ZM277 716H277.5V577H277H276.5V716H277Z" fill="#F8F8F8" fill-opacity="0.09"/>
<path d="M553 716V716.5H553.5V716H553ZM415 716H414.5V716.5H415V716ZM553 577H552.5V716H553H553.5V577H553ZM553 716V715.5H415V716V716.5H553V716ZM415 716H415.5V577H415H414.5V716H415Z" fill="#F8F8F8" fill-opacity="0.09"/>
<path d="M691 716V716.5H691.5V716H691ZM553 716H552.5V716.5H553V716ZM691 577H690.5V716H691H691.5V577H691ZM691 716V715.5H553V716V716.5H691V716ZM553 716H553.5V577H553H552.5V716H553Z" fill="#F8F8F8" fill-opacity="0.09"/>
<path d="M829 716V716.5H829.5V716H829ZM691 716H690.5V716.5H691V716ZM829 577H828.5V716H829H829.5V577H829ZM829 716V715.5H691V716V716.5H829V716ZM691 716H691.5V577H691H690.5V716H691Z" fill="#F8F8F8" fill-opacity="0.09"/>
<path d="M967 716V716.5H967.5V716H967ZM829 716H828.5V716.5H829V716ZM967 577H966.5V716H967H967.5V577H967ZM967 716V715.5H829V716V716.5H967V716ZM829 716H829.5V577H829H828.5V716H829Z" fill="#F8F8F8" fill-opacity="0.09"/>
<path d="M1105 716V716.5H1105.5V716H1105ZM967 716H966.5V716.5H967V716ZM1105 577H1104.5V716H1105H1105.5V577H1105ZM1105 716V715.5H967V716V716.5H1105V716ZM967 716H967.5V577H967H966.5V716H967Z" fill="#F8F8F8" fill-opacity="0.09"/>
<path d="M1243 716V716.5H1243.5V716H1243ZM1105 716H1104.5V716.5H1105V716ZM1243 577H1242.5V716H1243H1243.5V577H1243ZM1243 716V715.5H1105V716V716.5H1243V716ZM1105 716H1105.5V577H1105H1104.5V716H1105Z" fill="#F8F8F8" fill-opacity="0.09"/>
<path d="M1381 716V716.5H1381.5V716H1381ZM1243 716H1242.5V716.5H1243V716ZM1381 577H1380.5V716H1381H1381.5V577H1381ZM1381 716V715.5H1243V716V716.5H1381V716ZM1243 716H1243.5V577H1243H1242.5V716H1243Z" fill="#F8F8F8" fill-opacity="0.09"/>
<path d="M1519 716V716.5H1519.5V716H1519ZM1381 716H1380.5V716.5H1381V716ZM1519 577H1518.5V716H1519H1519.5V577H1519ZM1519 716V715.5H1381V716V716.5H1519V716ZM1381 716H1381.5V577H1381H1380.5V716H1381Z" fill="#F8F8F8" fill-opacity="0.09"/>
<path d="M1657 716V716.5H1657.5V716H1657ZM1519 716H1518.5V716.5H1519V716ZM1657 577H1656.5V716H1657H1657.5V577H1657ZM1657 716V715.5H1519V716V716.5H1657V716ZM1519 716H1519.5V577H1519H1518.5V716H1519Z" fill="#F8F8F8" fill-opacity="0.09"/>
<path d="M1795 716V716.5H1795.5V716H1795ZM1657 716H1656.5V716.5H1657V716ZM1795 577H1794.5V716H1795H1795.5V577H1795ZM1795 716V715.5H1657V716V716.5H1795V716ZM1657 716H1657.5V577H1657H1656.5V716H1657Z" fill="#F8F8F8" fill-opacity="0.09"/>
<path d="M1934 716V716.5H1934.5V716H1934ZM1795 716H1794.5V716.5H1795V716ZM1934 577H1933.5V716H1934H1934.5V577H1934ZM1934 716V715.5H1795V716V716.5H1934V716ZM1795 716H1795.5V577H1795H1794.5V716H1795Z" fill="#F8F8F8" fill-opacity="0.09"/>
<path d="M139 995V995.5H139.5V995H139ZM1 995H0.5V995.5H1V995ZM139 856H138.5V995H139H139.5V856H139ZM139 995V994.5H1V995V995.5H139V995ZM1 995H1.5V856H1H0.5V995H1Z" fill="#F8F8F8" fill-opacity="0.09"/>
<path d="M277 995V995.5H277.5V995H277ZM139 995H138.5V995.5H139V995ZM277 856H276.5V995H277H277.5V856H277ZM277 995V994.5H139V995V995.5H277V995ZM139 995H139.5V856H139H138.5V995H139Z" fill="#F8F8F8" fill-opacity="0.09"/>
<path d="M415 995V995.5H415.5V995H415ZM277 995H276.5V995.5H277V995ZM415 856H414.5V995H415H415.5V856H415ZM415 995V994.5H277V995V995.5H415V995ZM277 995H277.5V856H277H276.5V995H277Z" fill="#F8F8F8" fill-opacity="0.09"/>
<path d="M553 995V995.5H553.5V995H553ZM415 995H414.5V995.5H415V995ZM553 856H552.5V995H553H553.5V856H553ZM553 995V994.5H415V995V995.5H553V995ZM415 995H415.5V856H415H414.5V995H415Z" fill="#F8F8F8" fill-opacity="0.09"/>
<path d="M691 995V995.5H691.5V995H691ZM553 995H552.5V995.5H553V995ZM691 856H690.5V995H691H691.5V856H691ZM691 995V994.5H553V995V995.5H691V995ZM553 995H553.5V856H553H552.5V995H553Z" fill="#F8F8F8" fill-opacity="0.09"/>
<path d="M829 995V995.5H829.5V995H829ZM691 995H690.5V995.5H691V995ZM829 856H828.5V995H829H829.5V856H829ZM829 995V994.5H691V995V995.5H829V995ZM691 995H691.5V856H691H690.5V995H691Z" fill="#F8F8F8" fill-opacity="0.09"/>
<path d="M967 995V995.5H967.5V995H967ZM829 995H828.5V995.5H829V995ZM967 856H966.5V995H967H967.5V856H967ZM967 995V994.5H829V995V995.5H967V995ZM829 995H829.5V856H829H828.5V995H829Z" fill="#F8F8F8" fill-opacity="0.09"/>
<path d="M1105 995V995.5H1105.5V995H1105ZM967 995H966.5V995.5H967V995ZM1105 856H1104.5V995H1105H1105.5V856H1105ZM1105 995V994.5H967V995V995.5H1105V995ZM967 995H967.5V856H967H966.5V995H967Z" fill="#F8F8F8" fill-opacity="0.09"/>
<path d="M1243 995V995.5H1243.5V995H1243ZM1105 995H1104.5V995.5H1105V995ZM1243 856H1242.5V995H1243H1243.5V856H1243ZM1243 995V994.5H1105V995V995.5H1243V995ZM1105 995H1105.5V856H1105H1104.5V995H1105Z" fill="#F8F8F8" fill-opacity="0.09"/>
<path d="M1381 995V995.5H1381.5V995H1381ZM1243 995H1242.5V995.5H1243V995ZM1381 856H1380.5V995H1381H1381.5V856H1381ZM1381 995V994.5H1243V995V995.5H1381V995ZM1243 995H1243.5V856H1243H1242.5V995H1243Z" fill="#F8F8F8" fill-opacity="0.09"/>
<path d="M1519 995V995.5H1519.5V995H1519ZM1381 995H1380.5V995.5H1381V995ZM1519 856H1518.5V995H1519H1519.5V856H1519ZM1519 995V994.5H1381V995V995.5H1519V995ZM1381 995H1381.5V856H1381H1380.5V995H1381Z" fill="#F8F8F8" fill-opacity="0.09"/>
<path d="M1657 995V995.5H1657.5V995H1657ZM1519 995H1518.5V995.5H1519V995ZM1657 856H1656.5V995H1657H1657.5V856H1657ZM1657 995V994.5H1519V995V995.5H1657V995ZM1519 995H1519.5V856H1519H1518.5V995H1519Z" fill="#F8F8F8" fill-opacity="0.09"/>
<path d="M1795 995V995.5H1795.5V995H1795ZM1657 995H1656.5V995.5H1657V995ZM1795 856H1794.5V995H1795H1795.5V856H1795ZM1795 995V994.5H1657V995V995.5H1795V995ZM1657 995H1657.5V856H1657H1656.5V995H1657Z" fill="#F8F8F8" fill-opacity="0.09"/>
<path d="M1924 995V995.5H1924.5V995H1924ZM1795 995H1794.5V995.5H1795V995ZM1924 856H1923.5V995H1924H1924.5V856H1924ZM1924 995V994.5H1795V995V995.5H1924V995ZM1795 995H1795.5V856H1795H1794.5V995H1795Z" fill="#F8F8F8" fill-opacity="0.09"/>
<path d="M139 856V856.5H139.5V856H139ZM1 856H0.5V856.5H1V856ZM139 717H138.5V856H139H139.5V717H139ZM139 856V855.5H1V856V856.5H139V856ZM1 856H1.5V717H1H0.5V856H1Z" fill="#F8F8F8" fill-opacity="0.09"/>
<path d="M277 856V856.5H277.5V856H277ZM139 856H138.5V856.5H139V856ZM277 717H276.5V856H277H277.5V717H277ZM277 856V855.5H139V856V856.5H277V856ZM139 856H139.5V717H139H138.5V856H139Z" fill="#F8F8F8" fill-opacity="0.09"/>
<path d="M415 856V856.5H415.5V856H415ZM277 856H276.5V856.5H277V856ZM415 717H414.5V856H415H415.5V717H415ZM415 856V855.5H277V856V856.5H415V856ZM277 856H277.5V717H277H276.5V856H277Z" fill="#F8F8F8" fill-opacity="0.09"/>
<path d="M553 856V856.5H553.5V856H553ZM415 856H414.5V856.5H415V856ZM553 717H552.5V856H553H553.5V717H553ZM553 856V855.5H415V856V856.5H553V856ZM415 856H415.5V717H415H414.5V856H415Z" fill="#F8F8F8" fill-opacity="0.09"/>
<path d="M691 856V856.5H691.5V856H691ZM553 856H552.5V856.5H553V856ZM691 717H690.5V856H691H691.5V717H691ZM691 856V855.5H553V856V856.5H691V856ZM553 856H553.5V717H553H552.5V856H553Z" fill="#F8F8F8" fill-opacity="0.09"/>
<path d="M829 856V856.5H829.5V856H829ZM691 856H690.5V856.5H691V856ZM829 717H828.5V856H829H829.5V717H829ZM829 856V855.5H691V856V856.5H829V856ZM691 856H691.5V717H691H690.5V856H691Z" fill="#F8F8F8" fill-opacity="0.09"/>
<path d="M967 856V856.5H967.5V856H967ZM829 856H828.5V856.5H829V856ZM967 717H966.5V856H967H967.5V717H967ZM967 856V855.5H829V856V856.5H967V856ZM829 856H829.5V717H829H828.5V856H829Z" fill="#F8F8F8" fill-opacity="0.09"/>
<path d="M1105 856V856.5H1105.5V856H1105ZM967 856H966.5V856.5H967V856ZM1105 717H1104.5V856H1105H1105.5V717H1105ZM1105 856V855.5H967V856V856.5H1105V856ZM967 856H967.5V717H967H966.5V856H967Z" fill="#F8F8F8" fill-opacity="0.09"/>
<path d="M1243 856V856.5H1243.5V856H1243ZM1105 856H1104.5V856.5H1105V856ZM1243 717H1242.5V856H1243H1243.5V717H1243ZM1243 856V855.5H1105V856V856.5H1243V856ZM1105 856H1105.5V717H1105H1104.5V856H1105Z" fill="#F8F8F8" fill-opacity="0.09"/>
<path d="M1381 856V856.5H1381.5V856H1381ZM1243 856H1242.5V856.5H1243V856ZM1381 717H1380.5V856H1381H1381.5V717H1381ZM1381 856V855.5H1243V856V856.5H1381V856ZM1243 856H1243.5V717H1243H1242.5V856H1243Z" fill="#F8F8F8" fill-opacity="0.09"/>
<path d="M1519 856V856.5H1519.5V856H1519ZM1381 856H1380.5V856.5H1381V856ZM1519 717H1518.5V856H1519H1519.5V717H1519ZM1519 856V855.5H1381V856V856.5H1519V856ZM1381 856H1381.5V717H1381H1380.5V856H1381Z" fill="#F8F8F8" fill-opacity="0.09"/>
<path d="M1657 856V856.5H1657.5V856H1657ZM1519 856H1518.5V856.5H1519V856ZM1657 717H1656.5V856H1657H1657.5V717H1657ZM1657 856V855.5H1519V856V856.5H1657V856ZM1519 856H1519.5V717H1519H1518.5V856H1519Z" fill="#F8F8F8" fill-opacity="0.09"/>
<path d="M1795 856V856.5H1795.5V856H1795ZM1657 856H1656.5V856.5H1657V856ZM1795 717H1794.5V856H1795H1795.5V717H1795ZM1795 856V855.5H1657V856V856.5H1795V856ZM1657 856H1657.5V717H1657H1656.5V856H1657Z" fill="#F8F8F8" fill-opacity="0.09"/>
<path d="M1924 856V856.5H1924.5V856H1924ZM1795 856H1794.5V856.5H1795V856ZM1924 717H1923.5V856H1924H1924.5V717H1924ZM1924 856V855.5H1795V856V856.5H1924V856ZM1795 856H1795.5V717H1795H1794.5V856H1795Z" fill="#F8F8F8" fill-opacity="0.09"/>
<path d="M139 1133V1133.5H139.5V1133H139ZM1 1133H0.5V1133.5H1V1133ZM139 994H138.5V1133H139H139.5V994H139ZM139 1133V1132.5H1V1133V1133.5H139V1133ZM1 1133H1.5V994H1H0.5V1133H1Z" fill="#F8F8F8" fill-opacity="0.09"/>
<path d="M277 1133V1133.5H277.5V1133H277ZM139 1133H138.5V1133.5H139V1133ZM277 994H276.5V1133H277H277.5V994H277ZM277 1133V1132.5H139V1133V1133.5H277V1133ZM139 1133H139.5V994H139H138.5V1133H139Z" fill="#F8F8F8" fill-opacity="0.09"/>
<path d="M415 1133V1133.5H415.5V1133H415ZM277 1133H276.5V1133.5H277V1133ZM415 994H414.5V1133H415H415.5V994H415ZM415 1133V1132.5H277V1133V1133.5H415V1133ZM277 1133H277.5V994H277H276.5V1133H277Z" fill="#F8F8F8" fill-opacity="0.09"/>
<path d="M553 1133V1133.5H553.5V1133H553ZM415 1133H414.5V1133.5H415V1133ZM553 994H552.5V1133H553H553.5V994H553ZM553 1133V1132.5H415V1133V1133.5H553V1133ZM415 1133H415.5V994H415H414.5V1133H415Z" fill="#F8F8F8" fill-opacity="0.09"/>
<path d="M691 1133V1133.5H691.5V1133H691ZM553 1133H552.5V1133.5H553V1133ZM691 994H690.5V1133H691H691.5V994H691ZM691 1133V1132.5H553V1133V1133.5H691V1133ZM553 1133H553.5V994H553H552.5V1133H553Z" fill="#F8F8F8" fill-opacity="0.09"/>
<path d="M829 1133V1133.5H829.5V1133H829ZM691 1133H690.5V1133.5H691V1133ZM829 994H828.5V1133H829H829.5V994H829ZM829 1133V1132.5H691V1133V1133.5H829V1133ZM691 1133H691.5V994H691H690.5V1133H691Z" fill="#F8F8F8" fill-opacity="0.09"/>
<path d="M967 1133V1133.5H967.5V1133H967ZM829 1133H828.5V1133.5H829V1133ZM967 994H966.5V1133H967H967.5V994H967ZM967 1133V1132.5H829V1133V1133.5H967V1133ZM829 1133H829.5V994H829H828.5V1133H829Z" fill="#F8F8F8" fill-opacity="0.09"/>
<path d="M1105 1133V1133.5H1105.5V1133H1105ZM967 1133H966.5V1133.5H967V1133ZM1105 994H1104.5V1133H1105H1105.5V994H1105ZM1105 1133V1132.5H967V1133V1133.5H1105V1133ZM967 1133H967.5V994H967H966.5V1133H967Z" fill="#F8F8F8" fill-opacity="0.09"/>
<path d="M1243 1133V1133.5H1243.5V1133H1243ZM1105 1133H1104.5V1133.5H1105V1133ZM1243 994H1242.5V1133H1243H1243.5V994H1243ZM1243 1133V1132.5H1105V1133V1133.5H1243V1133ZM1105 1133H1105.5V994H1105H1104.5V1133H1105Z" fill="#F8F8F8" fill-opacity="0.09"/>
<path d="M1381 1133V1133.5H1381.5V1133H1381ZM1243 1133H1242.5V1133.5H1243V1133ZM1381 994H1380.5V1133H1381H1381.5V994H1381ZM1381 1133V1132.5H1243V1133V1133.5H1381V1133ZM1243 1133H1243.5V994H1243H1242.5V1133H1243Z" fill="#F8F8F8" fill-opacity="0.09"/>
<path d="M1519 1133V1133.5H1519.5V1133H1519ZM1381 1133H1380.5V1133.5H1381V1133ZM1519 994H1518.5V1133H1519H1519.5V994H1519ZM1519 1133V1132.5H1381V1133V1133.5H1519V1133ZM1381 1133H1381.5V994H1381H1380.5V1133H1381Z" fill="#F8F8F8" fill-opacity="0.09"/>
<path d="M1657 1133V1133.5H1657.5V1133H1657ZM1519 1133H1518.5V1133.5H1519V1133ZM1657 994H1656.5V1133H1657H1657.5V994H1657ZM1657 1133V1132.5H1519V1133V1133.5H1657V1133ZM1519 1133H1519.5V994H1519H1518.5V1133H1519Z" fill="#F8F8F8" fill-opacity="0.09"/>
<path d="M1795 1133V1133.5H1795.5V1133H1795ZM1657 1133H1656.5V1133.5H1657V1133ZM1795 994H1794.5V1133H1795H1795.5V994H1795ZM1795 1133V1132.5H1657V1133V1133.5H1795V1133ZM1657 1133H1657.5V994H1657H1656.5V1133H1657Z" fill="#F8F8F8" fill-opacity="0.09"/>
<path d="M1924 1133V1133.5H1924.5V1133H1924ZM1795 1133H1794.5V1133.5H1795V1133ZM1924 994H1923.5V1133H1924H1924.5V994H1924ZM1924 1133V1132.5H1795V1133V1133.5H1924V1133ZM1795 1133H1795.5V994H1795H1794.5V1133H1795Z" fill="#F8F8F8" fill-opacity="0.09"/>
<rect x="1" y="299" width="138" height="139" stroke="#F8F8F8" stroke-opacity="0.09"/>
<path d="M277 438V438.5H277.5V438H277ZM139 438H138.5V438.5H139V438ZM277 299H276.5V438H277H277.5V299H277ZM277 438V437.5H139V438V438.5H277V438ZM139 438H139.5V299H139H138.5V438H139Z" fill="#F8F8F8" fill-opacity="0.09"/>
<path d="M415 438V438.5H415.5V438H415ZM277 438H276.5V438.5H277V438ZM415 299H414.5V438H415H415.5V299H415ZM415 438V437.5H277V438V438.5H415V438ZM277 438H277.5V299H277H276.5V438H277Z" fill="#F8F8F8" fill-opacity="0.09"/>
<path d="M553 438V438.5H553.5V438H553ZM415 438H414.5V438.5H415V438ZM553 299H552.5V438H553H553.5V299H553ZM553 438V437.5H415V438V438.5H553V438ZM415 438H415.5V299H415H414.5V438H415Z" fill="#F8F8F8" fill-opacity="0.09"/>
<path d="M691 438V438.5H691.5V438H691ZM553 438H552.5V438.5H553V438ZM691 299H690.5V438H691H691.5V299H691ZM691 438V437.5H553V438V438.5H691V438ZM553 438H553.5V299H553H552.5V438H553Z" fill="#F8F8F8" fill-opacity="0.09"/>
<path d="M829 438V438.5H829.5V438H829ZM691 438H690.5V438.5H691V438ZM829 299H828.5V438H829H829.5V299H829ZM829 438V437.5H691V438V438.5H829V438ZM691 438H691.5V299H691H690.5V438H691Z" fill="#F8F8F8" fill-opacity="0.09"/>
<path d="M967 438V438.5H967.5V438H967ZM829 438H828.5V438.5H829V438ZM967 299H966.5V438H967H967.5V299H967ZM967 438V437.5H829V438V438.5H967V438ZM829 438H829.5V299H829H828.5V438H829Z" fill="#F8F8F8" fill-opacity="0.09"/>
<path d="M1105 438V438.5H1105.5V438H1105ZM967 438H966.5V438.5H967V438ZM1105 299H1104.5V438H1105H1105.5V299H1105ZM1105 438V437.5H967V438V438.5H1105V438ZM967 438H967.5V299H967H966.5V438H967Z" fill="#F8F8F8" fill-opacity="0.09"/>
<path d="M1243 438V438.5H1243.5V438H1243ZM1105 438H1104.5V438.5H1105V438ZM1243 299H1242.5V438H1243H1243.5V299H1243ZM1243 438V437.5H1105V438V438.5H1243V438ZM1105 438H1105.5V299H1105H1104.5V438H1105Z" fill="#F8F8F8" fill-opacity="0.09"/>
<path d="M1381 438V438.5H1381.5V438H1381ZM1243 438H1242.5V438.5H1243V438ZM1381 299H1380.5V438H1381H1381.5V299H1381ZM1381 438V437.5H1243V438V438.5H1381V438ZM1243 438H1243.5V299H1243H1242.5V438H1243Z" fill="#F8F8F8" fill-opacity="0.09"/>
<path d="M1519 438V438.5H1519.5V438H1519ZM1381 438H1380.5V438.5H1381V438ZM1519 299H1518.5V438H1519H1519.5V299H1519ZM1519 438V437.5H1381V438V438.5H1519V438ZM1381 438H1381.5V299H1381H1380.5V438H1381Z" fill="#F8F8F8" fill-opacity="0.09"/>
<path d="M1657 438V438.5H1657.5V438H1657ZM1519 438H1518.5V438.5H1519V438ZM1657 299H1656.5V438H1657H1657.5V299H1657ZM1657 438V437.5H1519V438V438.5H1657V438ZM1519 438H1519.5V299H1519H1518.5V438H1519Z" fill="#F8F8F8" fill-opacity="0.09"/>
<path d="M1795 438V438.5H1795.5V438H1795ZM1657 438H1656.5V438.5H1657V438ZM1795 299H1794.5V438H1795H1795.5V299H1795ZM1795 438V437.5H1657V438V438.5H1795V438ZM1657 438H1657.5V299H1657H1656.5V438H1657Z" fill="#F8F8F8" fill-opacity="0.09"/>
<path d="M1933 438V438.5H1933.5V438H1933ZM1795 438H1794.5V438.5H1795V438ZM1933 299H1932.5V438H1933H1933.5V299H1933ZM1933 438V437.5H1795V438V438.5H1933V438ZM1795 438H1795.5V299H1795H1794.5V438H1795Z" fill="#F8F8F8" fill-opacity="0.09"/>
<path d="M139 577V577.5H139.5V577H139ZM1 577H0.5V577.5H1V577ZM139 438H138.5V577H139H139.5V438H139ZM139 577V576.5H1V577V577.5H139V577ZM1 577H1.5V438H1H0.5V577H1Z" fill="#F8F8F8" fill-opacity="0.09"/>
<path d="M277 577V577.5H277.5V577H277ZM139 577H138.5V577.5H139V577ZM277 438H276.5V577H277H277.5V438H277ZM277 577V576.5H139V577V577.5H277V577ZM139 577H139.5V438H139H138.5V577H139Z" fill="#F8F8F8" fill-opacity="0.09"/>
<path d="M415 577V577.5H415.5V577H415ZM277 577H276.5V577.5H277V577ZM415 438H414.5V577H415H415.5V438H415ZM415 577V576.5H277V577V577.5H415V577ZM277 577H277.5V438H277H276.5V577H277Z" fill="#F8F8F8" fill-opacity="0.09"/>
<path d="M553 577V577.5H553.5V577H553ZM415 577H414.5V577.5H415V577ZM553 438H552.5V577H553H553.5V438H553ZM553 577V576.5H415V577V577.5H553V577ZM415 577H415.5V438H415H414.5V577H415Z" fill="#F8F8F8" fill-opacity="0.09"/>
<path d="M691 577V577.5H691.5V577H691ZM553 577H552.5V577.5H553V577ZM691 438H690.5V577H691H691.5V438H691ZM691 577V576.5H553V577V577.5H691V577ZM553 577H553.5V438H553H552.5V577H553Z" fill="#F8F8F8" fill-opacity="0.09"/>
<path d="M829 577V577.5H829.5V577H829ZM691 577H690.5V577.5H691V577ZM829 438H828.5V577H829H829.5V438H829ZM829 577V576.5H691V577V577.5H829V577ZM691 577H691.5V438H691H690.5V577H691Z" fill="#F8F8F8" fill-opacity="0.09"/>
<path d="M967 577V577.5H967.5V577H967ZM829 577H828.5V577.5H829V577ZM967 438H966.5V577H967H967.5V438H967ZM967 577V576.5H829V577V577.5H967V577ZM829 577H829.5V438H829H828.5V577H829Z" fill="#F8F8F8" fill-opacity="0.09"/>
<path d="M1105 577V577.5H1105.5V577H1105ZM967 577H966.5V577.5H967V577ZM1105 438H1104.5V577H1105H1105.5V438H1105ZM1105 577V576.5H967V577V577.5H1105V577ZM967 577H967.5V438H967H966.5V577H967Z" fill="#F8F8F8" fill-opacity="0.09"/>
<path d="M1243 577V577.5H1243.5V577H1243ZM1105 577H1104.5V577.5H1105V577ZM1243 438H1242.5V577H1243H1243.5V438H1243ZM1243 577V576.5H1105V577V577.5H1243V577ZM1105 577H1105.5V438H1105H1104.5V577H1105Z" fill="#F8F8F8" fill-opacity="0.09"/>
<path d="M1381 577V577.5H1381.5V577H1381ZM1243 577H1242.5V577.5H1243V577ZM1381 438H1380.5V577H1381H1381.5V438H1381ZM1381 577V576.5H1243V577V577.5H1381V577ZM1243 577H1243.5V438H1243H1242.5V577H1243Z" fill="#F8F8F8" fill-opacity="0.09"/>
<path d="M1519 577V577.5H1519.5V577H1519ZM1381 577H1380.5V577.5H1381V577ZM1519 438H1518.5V577H1519H1519.5V438H1519ZM1519 577V576.5H1381V577V577.5H1519V577ZM1381 577H1381.5V438H1381H1380.5V577H1381Z" fill="#F8F8F8" fill-opacity="0.09"/>
<path d="M1657 577V577.5H1657.5V577H1657ZM1519 577H1518.5V577.5H1519V577ZM1657 438H1656.5V577H1657H1657.5V438H1657ZM1657 577V576.5H1519V577V577.5H1657V577ZM1519 577H1519.5V438H1519H1518.5V577H1519Z" fill="#F8F8F8" fill-opacity="0.09"/>
<path d="M1795 577V577.5H1795.5V577H1795ZM1657 577H1656.5V577.5H1657V577ZM1795 438H1794.5V577H1795H1795.5V438H1795ZM1795 577V576.5H1657V577V577.5H1795V577ZM1657 577H1657.5V438H1657H1656.5V577H1657Z" fill="#F8F8F8" fill-opacity="0.09"/>
<path d="M1934 577V577.5H1934.5V577H1934ZM1795 577H1794.5V577.5H1795V577ZM1934 438H1933.5V577H1934H1934.5V438H1934ZM1934 577V576.5H1795V577V577.5H1934V577ZM1795 577H1795.5V438H1795H1794.5V577H1795Z" fill="#F8F8F8" fill-opacity="0.09"/>
<rect x="1" y="160" width="138" height="139" stroke="#F8F8F8" stroke-opacity="0.09"/>
<rect x="139" y="160" width="138" height="139" stroke="#F8F8F8" stroke-opacity="0.09"/>
<rect x="277" y="160" width="138" height="139" stroke="#F8F8F8" stroke-opacity="0.09"/>
<rect x="415" y="160" width="138" height="139" stroke="#F8F8F8" stroke-opacity="0.09"/>
<rect x="553" y="160" width="138" height="139" stroke="#F8F8F8" stroke-opacity="0.09"/>
<rect x="691" y="160" width="138" height="139" stroke="#F8F8F8" stroke-opacity="0.09"/>
<rect x="829" y="160" width="138" height="139" stroke="#F8F8F8" stroke-opacity="0.09"/>
<rect x="967" y="160" width="138" height="139" stroke="#F8F8F8" stroke-opacity="0.09"/>
<rect x="1105" y="160" width="138" height="139" stroke="#F8F8F8" stroke-opacity="0.09"/>
<rect x="1243" y="160" width="138" height="139" stroke="#F8F8F8" stroke-opacity="0.09"/>
<rect x="1381" y="160" width="138" height="139" stroke="#F8F8F8" stroke-opacity="0.09"/>
<rect x="1519" y="160" width="138" height="139" stroke="#F8F8F8" stroke-opacity="0.09"/>
<rect x="1657" y="160" width="138" height="139" stroke="#F8F8F8" stroke-opacity="0.09"/>
<rect x="1795" y="160" width="138" height="139" stroke="#F8F8F8" stroke-opacity="0.09"/>
<g opacity="0.75" filter="url(#filter0_f_11312_58250)">
<path d="M1314 683.5C1314 873.21 1155.51 1027 960 1027C764.491 1027 606 873.21 606 683.5C606 493.79 764.491 340 960 340C1155.51 340 1314 493.79 1314 683.5Z" fill="#3C5FFF" fill-opacity="0.79"/>
</g>
<g filter="url(#filter1_f_11312_58250)">
<path d="M1607 608.913L1081 611" stroke="url(#paint0_radial_11312_58250)" stroke-width="2"/>
</g>
<g filter="url(#filter2_i_11312_58250)">
<path d="M1399.66 615.502C1395.98 615.394 1393.09 612.329 1393.2 608.654C1393.31 604.98 1396.37 602.089 1400.05 602.196C1403.72 602.304 1406.61 605.369 1406.5 609.043C1406.4 612.718 1403.33 615.609 1399.66 615.502ZM1401.41 609.052C1401.48 606.657 1402.61 608.457 1400.22 608.387C1397.82 608.317 1402.49 606.213 1402.42 608.607C1402.35 611.002 1397.82 608.317 1400.22 608.387C1402.61 608.457 1401.34 611.447 1401.41 609.052Z" fill="url(#paint1_radial_11312_58250)"/>
</g>
<g filter="url(#filter3_if_11312_58250)">
<path d="M679.635 843.378H1196.47C1209.45 843.378 1222.28 838.554 1230.47 828.478C1262.63 788.901 1254.27 755.675 1228.42 728.294C1210.89 709.721 1203.22 682.416 1204.25 656.897C1208.44 553.055 1083.39 414.797 872.852 544.807C860.892 552.193 846.427 554.793 832.592 552.311C747.704 537.08 704.588 564.391 684.316 648.213C679.76 667.053 665.465 681.686 649.481 692.651C609.274 720.234 605.294 774.056 643.745 826.462C652.01 837.727 665.663 843.378 679.635 843.378Z" fill="url(#paint2_radial_11312_58250)"/>
<path d="M872.326 543.956C977.812 478.816 1062.1 480.769 1119.55 512.28C1176.94 543.756 1207.36 604.637 1205.25 656.938C1204.25 681.862 1211.61 708.432 1228.35 726.742L1230.36 728.905C1242.7 742.36 1250.91 757.285 1252.2 773.735C1253.52 790.733 1247.44 809.179 1231.25 829.108C1222.83 839.468 1209.68 844.378 1196.47 844.378H679.635C665.409 844.378 651.427 838.623 642.938 827.054C623.612 800.713 614.888 773.934 616.117 750.196C617.348 726.435 628.552 705.797 648.916 691.827C664.815 680.921 678.872 666.468 683.344 647.979C693.506 605.958 709.445 577.88 733.682 562.276C757.916 546.675 790.22 543.692 832.769 551.326C846.369 553.766 860.583 551.208 872.326 543.956Z" stroke="url(#paint3_linear_11312_58250)" stroke-width="2"/>
</g>
<g filter="url(#filter4_di_11312_58250)">
<path d="M997.455 784.022C938.664 782.302 892.395 733.248 894.114 674.454C895.834 615.66 944.888 569.393 1003.68 571.113C1062.48 572.833 1108.74 621.887 1107.02 680.681C1105.3 739.475 1056.25 785.742 997.455 784.022ZM1025.44 680.815C1026.56 642.494 1044.76 671.292 1006.44 670.171C968.119 669.05 1042.81 635.382 1041.69 673.704C1040.57 712.025 968.119 669.05 1006.44 670.171C1044.76 671.292 1024.32 719.136 1025.44 680.815Z" fill="url(#paint4_radial_11312_58250)"/>
</g>
<g filter="url(#filter5_f_11312_58250)">
<path d="M549.004 903H981.004C994.259 903 1005 892.255 1005 879V803" stroke="url(#paint5_radial_11312_58250)" stroke-width="2"/>
</g>
<g filter="url(#filter6_i_11312_58250)">
<path d="M759.657 907.502C755.983 907.394 753.092 904.329 753.199 900.654C753.307 896.98 756.372 894.089 760.046 894.196C763.721 894.304 766.612 897.369 766.505 901.043C766.397 904.718 763.332 907.609 759.657 907.502ZM761.406 901.052C761.476 898.657 762.614 900.457 760.219 900.387C757.824 900.317 762.492 898.213 762.422 900.607C762.352 903.002 757.824 900.317 760.219 900.387C762.614 900.457 761.336 903.447 761.406 901.052Z" fill="url(#paint6_radial_11312_58250)"/>
</g>
<g filter="url(#filter7_f_11312_58250)">
<path d="M323 738L880 744.057" stroke="url(#paint7_radial_11312_58250)" stroke-width="2"/>
</g>
<g filter="url(#filter8_i_11312_58250)">
<path d="M465.653 751.502C461.979 751.394 459.088 748.329 459.195 744.654C459.303 740.98 462.368 738.089 466.043 738.196C469.717 738.304 472.608 741.369 472.501 745.043C472.393 748.718 469.328 751.609 465.653 751.502ZM467.402 745.052C467.472 742.657 468.61 744.457 466.215 744.387C463.82 744.317 468.488 742.213 468.418 744.607C468.348 747.002 463.82 744.317 466.215 744.387C468.61 744.457 467.332 747.447 467.402 745.052Z" fill="url(#paint8_radial_11312_58250)"/>
</g>
<g filter="url(#filter9_i_11312_58250)">
<path d="M678.653 749.502C674.979 749.394 672.088 746.329 672.195 742.654C672.303 738.98 675.368 736.089 679.043 736.196C682.717 736.304 685.608 739.369 685.501 743.043C685.393 746.718 682.328 749.609 678.653 749.502ZM680.402 743.052C680.472 740.657 681.61 742.457 679.215 742.387C676.82 742.317 681.488 740.213 681.418 742.607C681.348 745.002 676.82 742.317 679.215 742.387C681.61 742.457 680.332 745.447 680.402 743.052Z" fill="url(#paint9_radial_11312_58250)"/>
</g>
<g filter="url(#filter10_f_11312_58250)">
<path d="M1047 581V504C1047 490.745 1057.75 480 1071 480H1328.5" stroke="url(#paint10_radial_11312_58250)" stroke-width="2"/>
</g>
<g filter="url(#filter11_i_11312_58250)">
<path d="M1164.66 486.502C1160.98 486.394 1158.09 483.329 1158.2 479.654C1158.31 475.98 1161.37 473.089 1165.05 473.196C1168.72 473.304 1171.61 476.369 1171.5 480.043C1171.4 483.718 1168.33 486.609 1164.66 486.502ZM1166.41 480.052C1166.48 477.657 1167.61 479.457 1165.22 479.387C1162.82 479.317 1167.49 477.213 1167.42 479.607C1167.35 482.002 1162.82 479.317 1165.22 479.387C1167.61 479.457 1166.34 482.447 1166.41 480.052Z" fill="url(#paint11_radial_11312_58250)"/>
</g>
<g filter="url(#filter12_f_11312_58250)">
<path d="M1096 734H1518C1531.25 734 1542 744.745 1542 758V797" stroke="url(#paint12_radial_11312_58250)" stroke-width="2"/>
</g>
<g filter="url(#filter13_i_11312_58250)">
<path d="M1359.65 741.502C1355.98 741.394 1353.09 738.329 1353.2 734.654C1353.3 730.98 1356.37 728.089 1360.04 728.196C1363.72 728.304 1366.61 731.369 1366.5 735.043C1366.39 738.718 1363.33 741.609 1359.65 741.502ZM1361.4 735.052C1361.47 732.657 1362.61 734.457 1360.21 734.387C1357.82 734.317 1362.49 732.213 1362.42 734.607C1362.35 737.002 1357.82 734.317 1360.21 734.387C1362.61 734.457 1361.33 737.447 1361.4 735.052Z" fill="url(#paint13_radial_11312_58250)"/>
</g>
<g filter="url(#filter14_f_11312_58250)">
<path d="M751.004 505V587.062C751.004 593.429 753.534 599.535 758.036 604.036L768.004 614" stroke="url(#paint14_radial_11312_58250)" stroke-width="2"/>
</g>
<g filter="url(#filter15_f_11312_58250)">
<path d="M524.004 612L884.996 615.967" stroke="url(#paint15_radial_11312_58250)" stroke-width="2"/>
</g>
<g filter="url(#filter16_i_11312_58250)">
<path d="M615.657 618.502C611.983 618.394 609.092 615.329 609.199 611.654C609.307 607.98 612.372 605.089 616.046 605.196C619.721 605.304 622.612 608.369 622.505 612.043C622.397 615.718 619.332 618.609 615.657 618.502ZM617.406 612.052C617.476 609.657 618.614 611.457 616.219 611.387C613.824 611.317 618.492 609.213 618.422 611.607C618.352 614.002 613.824 611.317 616.219 611.387C618.614 611.457 617.336 614.447 617.406 612.052Z" fill="url(#paint16_radial_11312_58250)"/>
</g>
<defs>
<filter id="filter0_f_11312_58250" x="266" y="0" width="1388" height="1367" filterUnits="userSpaceOnUse" color-interpolation-filters="sRGB">
<feFlood flood-opacity="0" result="BackgroundImageFix"/>
<feBlend mode="normal" in="SourceGraphic" in2="BackgroundImageFix" result="shape"/>
<feGaussianBlur stdDeviation="170" result="effect1_foregroundBlur_11312_58250"/>
</filter>
<filter id="filter1_f_11312_58250" x="1078.99" y="605.913" width="530.012" height="8.08691" filterUnits="userSpaceOnUse" color-interpolation-filters="sRGB">
<feFlood flood-opacity="0" result="BackgroundImageFix"/>
<feBlend mode="normal" in="SourceGraphic" in2="BackgroundImageFix" result="shape"/>
<feGaussianBlur stdDeviation="1" result="effect1_foregroundBlur_11312_58250"/>
</filter>
<filter id="filter2_i_11312_58250" x="1393.2" y="602.193" width="13.3125" height="13.3115" filterUnits="userSpaceOnUse" color-interpolation-filters="sRGB">
<feFlood flood-opacity="0" result="BackgroundImageFix"/>
<feBlend mode="normal" in="SourceGraphic" in2="BackgroundImageFix" result="shape"/>
<feColorMatrix in="SourceAlpha" type="matrix" values="0 0 0 0 0 0 0 0 0 0 0 0 0 0 0 0 0 0 127 0" result="hardAlpha"/>
<feOffset/>
<feGaussianBlur stdDeviation="2.5"/>
<feComposite in2="hardAlpha" operator="arithmetic" k2="-1" k3="1"/>
<feColorMatrix type="matrix" values="0 0 0 0 0.367622 0 0 0 0 0.511869 0 0 0 0 0.903846 0 0 0 0.8 0"/>
<feBlend mode="normal" in2="shape" result="effect1_innerShadow_11312_58250"/>
</filter>
<filter id="filter3_if_11312_58250" x="612.004" y="486.999" width="644.369" height="361.379" filterUnits="userSpaceOnUse" color-interpolation-filters="sRGB">
<feFlood flood-opacity="0" result="BackgroundImageFix"/>
<feBlend mode="normal" in="SourceGraphic" in2="BackgroundImageFix" result="shape"/>
<feColorMatrix in="SourceAlpha" type="matrix" values="0 0 0 0 0 0 0 0 0 0 0 0 0 0 0 0 0 0 127 0" result="hardAlpha"/>
<feOffset/>
<feGaussianBlur stdDeviation="5.5"/>
<feComposite in2="hardAlpha" operator="arithmetic" k2="-1" k3="1"/>
<feColorMatrix type="matrix" values="0 0 0 0 1 0 0 0 0 1 0 0 0 0 1 0 0 0 0.64 0"/>
<feBlend mode="normal" in2="shape" result="effect1_innerShadow_11312_58250"/>
<feGaussianBlur stdDeviation="1.5" result="effect2_foregroundBlur_11312_58250"/>
</filter>
<filter id="filter4_di_11312_58250" x="874.068" y="551.066" width="253.002" height="253.002" filterUnits="userSpaceOnUse" color-interpolation-filters="sRGB">
<feFlood flood-opacity="0" result="BackgroundImageFix"/>
<feColorMatrix in="SourceAlpha" type="matrix" values="0 0 0 0 0 0 0 0 0 0 0 0 0 0 0 0 0 0 127 0" result="hardAlpha"/>
<feOffset/>
<feGaussianBlur stdDeviation="10"/>
<feComposite in2="hardAlpha" operator="out"/>
<feColorMatrix type="matrix" values="0 0 0 0 0.823529 0 0 0 0 0.866667 0 0 0 0 0.968627 0 0 0 0.6 0"/>
<feBlend mode="normal" in2="BackgroundImageFix" result="effect1_dropShadow_11312_58250"/>
<feBlend mode="normal" in="SourceGraphic" in2="effect1_dropShadow_11312_58250" result="shape"/>
<feColorMatrix in="SourceAlpha" type="matrix" values="0 0 0 0 0 0 0 0 0 0 0 0 0 0 0 0 0 0 127 0" result="hardAlpha"/>
<feOffset/>
<feGaussianBlur stdDeviation="20"/>
<feComposite in2="hardAlpha" operator="arithmetic" k2="-1" k3="1"/>
<feColorMatrix type="matrix" values="0 0 0 0 0.0666667 0 0 0 0 0.247059 0 0 0 0 0.737255 0 0 0 0.6 0"/>
<feBlend mode="normal" in2="shape" result="effect2_innerShadow_11312_58250"/>
</filter>
<filter id="filter5_f_11312_58250" x="547.004" y="801" width="461" height="105" filterUnits="userSpaceOnUse" color-interpolation-filters="sRGB">
<feFlood flood-opacity="0" result="BackgroundImageFix"/>
<feBlend mode="normal" in="SourceGraphic" in2="BackgroundImageFix" result="shape"/>
<feGaussianBlur stdDeviation="1" result="effect1_foregroundBlur_11312_58250"/>
</filter>
<filter id="filter6_i_11312_58250" x="753.195" y="894.193" width="13.3125" height="13.3115" filterUnits="userSpaceOnUse" color-interpolation-filters="sRGB">
<feFlood flood-opacity="0" result="BackgroundImageFix"/>
<feBlend mode="normal" in="SourceGraphic" in2="BackgroundImageFix" result="shape"/>
<feColorMatrix in="SourceAlpha" type="matrix" values="0 0 0 0 0 0 0 0 0 0 0 0 0 0 0 0 0 0 127 0" result="hardAlpha"/>
<feOffset/>
<feGaussianBlur stdDeviation="2.5"/>
<feComposite in2="hardAlpha" operator="arithmetic" k2="-1" k3="1"/>
<feColorMatrix type="matrix" values="0 0 0 0 0.367622 0 0 0 0 0.511869 0 0 0 0 0.903846 0 0 0 0.8 0"/>
<feBlend mode="normal" in2="shape" result="effect1_innerShadow_11312_58250"/>
</filter>
<filter id="filter7_f_11312_58250" x="320.988" y="735" width="561.023" height="12.0566" filterUnits="userSpaceOnUse" color-interpolation-filters="sRGB">
<feFlood flood-opacity="0" result="BackgroundImageFix"/>
<feBlend mode="normal" in="SourceGraphic" in2="BackgroundImageFix" result="shape"/>
<feGaussianBlur stdDeviation="1" result="effect1_foregroundBlur_11312_58250"/>
</filter>
<filter id="filter8_i_11312_58250" x="459.191" y="738.193" width="13.3125" height="13.3115" filterUnits="userSpaceOnUse" color-interpolation-filters="sRGB">
<feFlood flood-opacity="0" result="BackgroundImageFix"/>
<feBlend mode="normal" in="SourceGraphic" in2="BackgroundImageFix" result="shape"/>
<feColorMatrix in="SourceAlpha" type="matrix" values="0 0 0 0 0 0 0 0 0 0 0 0 0 0 0 0 0 0 127 0" result="hardAlpha"/>
<feOffset/>
<feGaussianBlur stdDeviation="2.5"/>
<feComposite in2="hardAlpha" operator="arithmetic" k2="-1" k3="1"/>
<feColorMatrix type="matrix" values="0 0 0 0 0.367622 0 0 0 0 0.511869 0 0 0 0 0.903846 0 0 0 0.8 0"/>
<feBlend mode="normal" in2="shape" result="effect1_innerShadow_11312_58250"/>
</filter>
<filter id="filter9_i_11312_58250" x="672.191" y="736.193" width="13.3125" height="13.3115" filterUnits="userSpaceOnUse" color-interpolation-filters="sRGB">
<feFlood flood-opacity="0" result="BackgroundImageFix"/>
<feBlend mode="normal" in="SourceGraphic" in2="BackgroundImageFix" result="shape"/>
<feColorMatrix in="SourceAlpha" type="matrix" values="0 0 0 0 0 0 0 0 0 0 0 0 0 0 0 0 0 0 127 0" result="hardAlpha"/>
<feOffset/>
<feGaussianBlur stdDeviation="2.5"/>
<feComposite in2="hardAlpha" operator="arithmetic" k2="-1" k3="1"/>
<feColorMatrix type="matrix" values="0 0 0 0 0.367622 0 0 0 0 0.511869 0 0 0 0 0.903846 0 0 0 0.8 0"/>
<feBlend mode="normal" in2="shape" result="effect1_innerShadow_11312_58250"/>
</filter>
<filter id="filter10_f_11312_58250" x="1044" y="477" width="286.5" height="106" filterUnits="userSpaceOnUse" color-interpolation-filters="sRGB">
<feFlood flood-opacity="0" result="BackgroundImageFix"/>
<feBlend mode="normal" in="SourceGraphic" in2="BackgroundImageFix" result="shape"/>
<feGaussianBlur stdDeviation="1" result="effect1_foregroundBlur_11312_58250"/>
</filter>
<filter id="filter11_i_11312_58250" x="1158.2" y="473.193" width="13.3125" height="13.3115" filterUnits="userSpaceOnUse" color-interpolation-filters="sRGB">
<feFlood flood-opacity="0" result="BackgroundImageFix"/>
<feBlend mode="normal" in="SourceGraphic" in2="BackgroundImageFix" result="shape"/>
<feColorMatrix in="SourceAlpha" type="matrix" values="0 0 0 0 0 0 0 0 0 0 0 0 0 0 0 0 0 0 127 0" result="hardAlpha"/>
<feOffset/>
<feGaussianBlur stdDeviation="2.5"/>
<feComposite in2="hardAlpha" operator="arithmetic" k2="-1" k3="1"/>
<feColorMatrix type="matrix" values="0 0 0 0 0.367622 0 0 0 0 0.511869 0 0 0 0 0.903846 0 0 0 0.8 0"/>
<feBlend mode="normal" in2="shape" result="effect1_innerShadow_11312_58250"/>
</filter>
<filter id="filter12_f_11312_58250" x="1094" y="731" width="451" height="68" filterUnits="userSpaceOnUse" color-interpolation-filters="sRGB">
<feFlood flood-opacity="0" result="BackgroundImageFix"/>
<feBlend mode="normal" in="SourceGraphic" in2="BackgroundImageFix" result="shape"/>
<feGaussianBlur stdDeviation="1" result="effect1_foregroundBlur_11312_58250"/>
</filter>
<filter id="filter13_i_11312_58250" x="1353.19" y="728.193" width="13.3125" height="13.3115" filterUnits="userSpaceOnUse" color-interpolation-filters="sRGB">
<feFlood flood-opacity="0" result="BackgroundImageFix"/>
<feBlend mode="normal" in="SourceGraphic" in2="BackgroundImageFix" result="shape"/>
<feColorMatrix in="SourceAlpha" type="matrix" values="0 0 0 0 0 0 0 0 0 0 0 0 0 0 0 0 0 0 127 0" result="hardAlpha"/>
<feOffset/>
<feGaussianBlur stdDeviation="2.5"/>
<feComposite in2="hardAlpha" operator="arithmetic" k2="-1" k3="1"/>
<feColorMatrix type="matrix" values="0 0 0 0 0.367622 0 0 0 0 0.511869 0 0 0 0 0.903846 0 0 0 0.8 0"/>
<feBlend mode="normal" in2="shape" result="effect1_innerShadow_11312_58250"/>
</filter>
<filter id="filter14_f_11312_58250" x="748.004" y="503" width="22.707" height="113.707" filterUnits="userSpaceOnUse" color-interpolation-filters="sRGB">
<feFlood flood-opacity="0" result="BackgroundImageFix"/>
<feBlend mode="normal" in="SourceGraphic" in2="BackgroundImageFix" result="shape"/>
<feGaussianBlur stdDeviation="1" result="effect1_foregroundBlur_11312_58250"/>
</filter>
<filter id="filter15_f_11312_58250" x="521.992" y="609" width="365.016" height="9.9668" filterUnits="userSpaceOnUse" color-interpolation-filters="sRGB">
<feFlood flood-opacity="0" result="BackgroundImageFix"/>
<feBlend mode="normal" in="SourceGraphic" in2="BackgroundImageFix" result="shape"/>
<feGaussianBlur stdDeviation="1" result="effect1_foregroundBlur_11312_58250"/>
</filter>
<filter id="filter16_i_11312_58250" x="609.195" y="605.193" width="13.3125" height="13.3115" filterUnits="userSpaceOnUse" color-interpolation-filters="sRGB">
<feFlood flood-opacity="0" result="BackgroundImageFix"/>
<feBlend mode="normal" in="SourceGraphic" in2="BackgroundImageFix" result="shape"/>
<feColorMatrix in="SourceAlpha" type="matrix" values="0 0 0 0 0 0 0 0 0 0 0 0 0 0 0 0 0 0 127 0" result="hardAlpha"/>
<feOffset/>
<feGaussianBlur stdDeviation="2.5"/>
<feComposite in2="hardAlpha" operator="arithmetic" k2="-1" k3="1"/>
<feColorMatrix type="matrix" values="0 0 0 0 0.367622 0 0 0 0 0.511869 0 0 0 0 0.903846 0 0 0 0.8 0"/>
<feBlend mode="normal" in2="shape" result="effect1_innerShadow_11312_58250"/>
</filter>
<radialGradient id="paint0_radial_11312_58250" cx="0" cy="0" r="1" gradientTransform="matrix(484.891 -2.82518 7637.97 41.2636 1101.55 611.73)" gradientUnits="userSpaceOnUse">
<stop stop-color="white"/>
<stop offset="0.388181" stop-color="white"/>
<stop offset="1" stop-color="#6CA0FF"/>
</radialGradient>
<radialGradient id="paint1_radial_11312_58250" cx="0" cy="0" r="1" gradientUnits="userSpaceOnUse" gradientTransform="translate(1397.73 608.914) rotate(73.0092) scale(25.4407)">
<stop stop-color="white"/>
<stop offset="1" stop-color="#D4E3FF"/>
</radialGradient>
<radialGradient id="paint2_radial_11312_58250" cx="0" cy="0" r="1" gradientUnits="userSpaceOnUse" gradientTransform="translate(934.188 667.689) rotate(90) scale(175.689 317.184)">
<stop stop-color="#88B2FF"/>
<stop offset="1" stop-color="#2461D1"/>
</radialGradient>
<linearGradient id="paint3_linear_11312_58250" x1="780.504" y1="564.5" x2="1137.5" y2="843" gradientUnits="userSpaceOnUse">
<stop stop-color="white"/>
<stop offset="1" stop-color="#2461D1"/>
</linearGradient>
<radialGradient id="paint4_radial_11312_58250" cx="0" cy="0" r="1" gradientUnits="userSpaceOnUse" gradientTransform="translate(1212.96 682.335) rotate(91.6753) scale(377.881)">
<stop stop-color="white"/>
<stop offset="1" stop-color="#D4E3FF"/>
</radialGradient>
<radialGradient id="paint5_radial_11312_58250" cx="0" cy="0" r="1" gradientTransform="matrix(420.362 -90.099 6621.22 7157.27 566.823 884.188)" gradientUnits="userSpaceOnUse">
<stop offset="0.173077" stop-color="#6CA0FF"/>
<stop offset="0.388181" stop-color="white"/>
<stop offset="0.9375" stop-color="white"/>
</radialGradient>
<radialGradient id="paint6_radial_11312_58250" cx="0" cy="0" r="1" gradientUnits="userSpaceOnUse" gradientTransform="translate(757.728 900.914) rotate(73.0092) scale(25.4407)">
<stop stop-color="white"/>
<stop offset="1" stop-color="#D4E3FF"/>
</radialGradient>
<radialGradient id="paint7_radial_11312_58250" cx="0" cy="0" r="1" gradientTransform="matrix(513.479 4.68282 8086.98 159.519 344.757 739.049)" gradientUnits="userSpaceOnUse">
<stop offset="0.0817308" stop-color="#6CA0FF"/>
<stop offset="0.716346" stop-color="white"/>
<stop offset="0.995192" stop-color="white"/>
</radialGradient>
<radialGradient id="paint8_radial_11312_58250" cx="0" cy="0" r="1" gradientUnits="userSpaceOnUse" gradientTransform="translate(463.725 744.914) rotate(73.0092) scale(25.4407)">
<stop stop-color="white"/>
<stop offset="1" stop-color="#D4E3FF"/>
</radialGradient>
<radialGradient id="paint9_radial_11312_58250" cx="0" cy="0" r="1" gradientUnits="userSpaceOnUse" gradientTransform="translate(676.725 742.914) rotate(73.0092) scale(25.4407)">
<stop stop-color="white"/>
<stop offset="1" stop-color="#D4E3FF"/>
</radialGradient>
<radialGradient id="paint10_radial_11312_58250" cx="0" cy="0" r="1" gradientTransform="matrix(259.5 -91 4087.44 7228.84 1058 562)" gradientUnits="userSpaceOnUse">
<stop stop-color="white"/>
<stop offset="0.388181" stop-color="white"/>
<stop offset="1" stop-color="#6CA0FF"/>
</radialGradient>
<radialGradient id="paint11_radial_11312_58250" cx="0" cy="0" r="1" gradientUnits="userSpaceOnUse" gradientTransform="translate(1162.73 479.914) rotate(73.0092) scale(25.4407)">
<stop stop-color="white"/>
<stop offset="1" stop-color="#D4E3FF"/>
</radialGradient>
<radialGradient id="paint12_radial_11312_58250" cx="0" cy="0" r="1" gradientTransform="matrix(411.144 -56.7624 6476.02 4509.08 1113.43 785.148)" gradientUnits="userSpaceOnUse">
<stop stop-color="white"/>
<stop offset="0.388181" stop-color="white"/>
<stop offset="1" stop-color="#6CA0FF"/>
</radialGradient>
<radialGradient id="paint13_radial_11312_58250" cx="0" cy="0" r="1" gradientUnits="userSpaceOnUse" gradientTransform="translate(1357.72 734.914) rotate(73.0092) scale(25.4407)">
<stop stop-color="white"/>
<stop offset="1" stop-color="#D4E3FF"/>
</radialGradient>
<radialGradient id="paint14_radial_11312_58250" cx="0" cy="0" r="1" gradientTransform="matrix(15.6714 -77.4851 246.844 6155.25 751.668 597.821)" gradientUnits="userSpaceOnUse">
<stop offset="0.0817308" stop-color="#6CA0FF"/>
<stop offset="0.716346" stop-color="white"/>
<stop offset="0.995192" stop-color="white"/>
</radialGradient>
<radialGradient id="paint15_radial_11312_58250" cx="0" cy="0" r="1" gradientTransform="matrix(332.79 2.75607 5240.9 129.171 538.101 612.967)" gradientUnits="userSpaceOnUse">
<stop offset="0.0817308" stop-color="#6CA0FF"/>
<stop offset="0.716346" stop-color="white"/>
<stop offset="0.995192" stop-color="white"/>
</radialGradient>
<radialGradient id="paint16_radial_11312_58250" cx="0" cy="0" r="1" gradientUnits="userSpaceOnUse" gradientTransform="translate(613.728 611.914) rotate(73.0092) scale(25.4407)">
<stop stop-color="white"/>
<stop offset="1" stop-color="#D4E3FF"/>
</radialGradient>
</defs>
</svg>
