<svg width="106" height="106" viewBox="0 0 106 106" fill="none" xmlns="http://www.w3.org/2000/svg">
<path d="M74.5093 67.0264C69.1204 67.0281 74.8009 67.0277 74.5093 67.0264V67.0264Z" fill="#457CE2"/>
<path d="M93.3243 36.0398C96.1102 17.6957 74.9478 5.24649 60.2478 15.9099C55.2085 8.31166 46.6246 3.66211 37.4186 3.66211C19.6553 3.66211 6.91345 20.2399 10.634 36.8374C5.17681 39.4016 1.60156 44.9814 1.60156 51.1538C1.60156 59.9033 8.70967 67.0215 17.4473 67.0215H51.8592V72.8374C50.1081 73.3989 48.7558 74.782 48.2244 76.5591H33.3508C32.6098 74.3129 30.516 72.6734 28.0357 72.6734C28.0208 72.6734 27.882 72.6734 27.8671 72.6742C24.8315 72.7597 22.4365 75.2166 22.4145 78.2946C22.4145 80.8473 24.0867 82.9649 26.4351 83.6592V94.694H22.4216V91.8732C22.4216 90.9864 21.7024 90.2672 20.8155 90.2672H11.9618C11.0749 90.2672 10.3557 90.9864 10.3557 91.8732V100.726C10.3557 101.613 11.0749 102.332 11.9618 102.332H20.8155C21.7024 102.332 22.4216 101.613 22.4216 100.726V97.9061H35.0709V100.726C35.0709 101.613 35.7901 102.332 36.677 102.332H45.5299C46.4168 102.332 47.136 101.613 47.136 100.726V97.9061H59.7861V100.726C59.7861 101.613 60.5053 102.332 61.3921 102.332H70.2451C71.1319 102.332 71.8511 101.613 71.8511 100.726V97.9061H84.5013V100.726C84.5013 101.613 85.2205 102.332 86.1073 102.332H94.9603C95.8471 102.332 96.5663 101.613 96.5663 100.726V91.8732C96.5663 90.9864 95.8471 90.2672 94.9603 90.2672H86.1073C85.2205 90.2672 84.5013 90.9864 84.5013 91.8732V94.694H79.5639V83.6356C81.8077 82.8965 83.4434 80.801 83.4434 78.2914C83.4214 75.2071 80.9002 72.6977 77.8221 72.6977C77.8072 72.6977 77.6684 72.6977 77.6535 72.6985C75.2288 72.7667 73.2359 74.3577 72.5114 76.5591H58.9355C58.3776 74.7229 56.9201 73.2909 55.0715 72.7749V67.0215C70.4547 67.0226 74.275 67.0241 74.5013 67.0252C76.7756 67.0244 81.016 67.0233 88.522 67.0215C97.2715 67.0215 104.39 59.9033 104.39 51.1538C104.389 44.2168 99.8207 38.0944 93.3243 36.0398ZM19.2094 99.1199H13.5678V93.4791H19.2094V99.1199ZM87.7132 93.4791H93.354V99.1199H87.7132V93.4791ZM31.8814 63.8055C30.5624 63.8055 29.4889 62.7319 29.4889 61.4122V36.7433C29.4889 35.4234 30.5625 34.3499 31.8814 34.3499H40.4207V61.4177C40.4207 62.2764 40.6306 63.0814 40.9774 63.8096C38.0615 63.8028 36.6956 63.7315 31.8814 63.8055ZM28.0412 80.7029C28.0404 80.7029 28.0397 80.7034 28.0389 80.7034C28.0389 80.7034 28.0368 80.7037 28.0357 80.7037C28.0084 80.7039 27.9856 80.7182 27.9588 80.7196L27.9581 80.7045C26.6508 80.6669 25.6266 79.6082 25.6266 78.2908C25.6361 76.978 26.6603 75.9217 28.0357 75.8855C29.3556 75.8855 30.4361 76.9638 30.4448 78.2946C30.4448 79.6209 29.3667 80.6994 28.0412 80.7029ZM43.9238 99.1199H38.283V93.4791H43.9238V99.1199ZM51.8592 94.694H47.136V91.8732C47.136 90.9864 46.4168 90.2672 45.5299 90.2672H36.677C35.7901 90.2672 35.0709 90.9864 35.0709 91.8732V94.694H29.6472V83.6516C31.4841 83.0963 32.9154 81.637 33.4302 79.7712H48.2144C48.7359 81.5414 50.0866 82.9262 51.8592 83.4934V94.694ZM68.6389 99.1199H62.9981V96.331C62.9982 96.3201 63.0043 96.3109 63.0043 96.3C63.0043 96.2891 62.9982 96.2799 62.9981 96.269V93.4793H68.6389V99.1199ZM77.822 75.9098C79.141 75.9098 80.2216 76.9889 80.2311 78.3189C80.2311 79.6472 79.1504 80.728 77.822 80.728V80.7625C77.796 80.7649 77.7725 80.7742 77.7467 80.7778L77.7443 80.7288C76.4369 80.6912 75.4127 79.6325 75.4127 78.3142C75.4216 77.0022 76.4458 75.9458 77.822 75.9098ZM58.9362 79.7712H72.4107C72.92 81.6979 74.404 83.2016 76.3518 83.7263V94.694H71.8513V91.8732C71.8513 90.9864 71.1321 90.2672 70.2452 90.2672H61.392C60.5051 90.2672 59.7859 90.9864 59.7859 91.8732V94.694H55.0713V83.5631C56.9239 83.0487 58.3798 81.6171 58.9362 79.7712ZM55.9884 78.156C55.9884 78.1592 55.9865 78.162 55.9865 78.1652C55.9865 78.1692 55.9887 78.1726 55.9887 78.1766C55.9842 79.5009 54.9061 80.5775 53.5804 80.5775V80.5977C53.5534 80.5956 53.5303 80.5828 53.503 80.582L53.5029 80.5783C52.1955 80.5415 51.1713 79.4828 51.1713 78.1653C51.1808 76.8525 52.205 75.7954 53.5804 75.7595C54.8963 75.7591 55.9728 76.8318 55.9884 78.156ZM58.8151 61.4175C58.8151 62.4099 58.2076 63.2619 57.3455 63.6237C57.3267 63.6306 57.3076 63.6337 57.289 63.6414C56.714 63.8659 48.2655 63.8343 46.0246 63.8094C44.7055 63.8094 43.6326 62.7366 43.6326 61.4175V32.7671C43.6328 32.759 43.6373 32.752 43.6373 32.7439C43.6373 32.7357 43.6326 32.7288 43.6326 32.7206V29.5184C43.6326 28.1993 44.7055 27.1265 46.0246 27.1265H56.424C57.7422 27.1265 58.8151 28.1993 58.8151 29.5184V61.4175ZM72.1616 61.412C72.1616 62.7319 71.0879 63.8054 69.7816 63.8054C65.9021 63.7741 63.4256 63.7937 61.7826 63.807C61.6652 63.808 61.5786 63.8084 61.4707 63.8091C61.8174 63.0809 62.0272 62.2761 62.0272 61.4175V34.3498H69.7681C71.0879 34.3498 72.1614 35.4234 72.1614 36.7431L72.1616 61.412ZM88.5217 63.8094H74.8142C75.1625 63.0798 75.3737 62.273 75.3737 61.412V36.7433C75.3737 33.6527 72.8588 31.1378 69.7682 31.1378H62.0273V29.5184C62.0273 26.4287 59.514 23.9144 56.4241 23.9144H46.0247C42.935 23.9144 40.4207 26.4285 40.4207 29.5184V31.1378H31.8814C28.7909 31.1378 26.2768 33.6527 26.2768 36.7433V61.4122C26.2768 62.2732 26.488 63.0798 26.8368 63.8096H17.4473C10.4812 63.8094 4.81368 58.1325 4.81368 51.1538C4.81368 45.8369 8.13245 41.0743 13.0722 39.302C13.8651 39.0174 14.3034 38.168 14.076 37.3573C9.90265 22.4504 21.2 6.87423 37.4188 6.87423C46.0968 6.87423 54.1483 11.5528 58.4309 19.0837C58.6678 19.5017 59.0802 19.791 59.553 19.8726C60.0251 19.9541 60.5106 19.82 60.8752 19.5064C73.7085 8.44753 93.6065 20.1906 89.9042 36.8648C89.8109 37.2844 89.8893 37.7236 90.1222 38.0843C90.3558 38.445 90.7236 38.6975 91.1439 38.7854C96.9576 39.9976 101.177 45.1993 101.177 51.1538C101.177 58.1325 95.5004 63.8094 88.5217 63.8094Z" fill="#457CE2"/>
<path d="M37.4003 37.4297H33.5279C32.6411 37.4297 31.9219 38.1489 31.9219 39.0357C31.9219 39.9226 32.6411 40.6418 33.5279 40.6418H37.4003C38.2872 40.6418 39.0064 39.9226 39.0064 39.0357C39.0064 38.1489 38.2872 37.4297 37.4003 37.4297Z" fill="#457CE2"/>
<path d="M37.4003 43.3447H33.5279C32.6411 43.3447 31.9219 44.0639 31.9219 44.9508C31.9219 45.8377 32.6411 46.5568 33.5279 46.5568H37.4003C38.2872 46.5568 39.0064 45.8377 39.0064 44.9508C39.0064 44.0639 38.2872 43.3447 37.4003 43.3447Z" fill="#457CE2"/>
<path d="M37.4003 49.2598H33.5279C32.6411 49.2598 31.9219 49.979 31.9219 50.8658C31.9219 51.7527 32.6411 52.4719 33.5279 52.4719H37.4003C38.2872 52.4719 39.0064 51.7527 39.0064 50.8658C39.0064 49.979 38.2872 49.2598 37.4003 49.2598Z" fill="#457CE2"/>
<path d="M69.0214 37.4297H65.149C64.2622 37.4297 63.543 38.1489 63.543 39.0357C63.543 39.9226 64.2622 40.6418 65.149 40.6418H69.0214C69.9083 40.6418 70.6275 39.9226 70.6275 39.0357C70.6275 38.1489 69.9083 37.4297 69.0214 37.4297Z" fill="#457CE2"/>
<path d="M69.0214 43.3447H65.149C64.2622 43.3447 63.543 44.0639 63.543 44.9508C63.543 45.8377 64.2622 46.5568 65.149 46.5568H69.0214C69.9083 46.5568 70.6275 45.8377 70.6275 44.9508C70.6275 44.0639 69.9083 43.3447 69.0214 43.3447Z" fill="#457CE2"/>
<path d="M69.0214 49.2598H65.149C64.2622 49.2598 63.543 49.979 63.543 50.8658C63.543 51.7527 64.2622 52.4719 65.149 52.4719H69.0214C69.9083 52.4719 70.6275 51.7527 70.6275 50.8658C70.6275 49.979 69.9083 49.2598 69.0214 49.2598Z" fill="#457CE2"/>
<path d="M51.2275 59.5633C52.8125 59.5633 54.0975 58.2783 54.0975 56.6933C54.0975 55.1082 52.8125 53.8232 51.2275 53.8232C49.6424 53.8232 48.3574 55.1082 48.3574 56.6933C48.3574 58.2783 49.6424 59.5633 51.2275 59.5633Z" fill="#457CE2"/>
<path d="M54.6803 31.1387H47.7721C45.6433 31.1387 45.6025 34.6982 47.7721 34.6982H54.6803C56.8091 34.6982 56.8497 31.1387 54.6803 31.1387Z" fill="#457CE2"/>
<path d="M54.68 38.8486H47.7718C45.5971 38.8486 45.6489 42.4081 47.7718 42.4081H54.68C56.8088 42.4081 56.8495 38.8486 54.68 38.8486Z" fill="#457CE2"/>
<path d="M54.68 46.5596H47.7719C45.6479 46.5596 45.5981 50.1191 47.7719 50.1191H54.68C56.8089 50.1191 56.8495 46.5596 54.68 46.5596Z" fill="#457CE2"/>
</svg>
